/* XPM */
static char * nxagentIconData[] = {
"128 128 8 1",
" 	c None",
".	c #000200",
"+	c #313330",
"@	c #535552",
"#	c #757774",
"$	c #9D9F9C",
"%	c #C4C7C3",
"&	c #FDFFFC",
"     ++++++++++++++++++++++++++++++++++++++++++++++++++++++++++++++++++++++++++++++++++++++++++++++++++++++++++++++++++++++     ",
"   ++++++++++++++++++++++++++++++++++++++++++++++++++++++++++++++++++++++++++++++++++++++++++++++++++++++++++++++++++++++++++   ",
"  ++++++++++++++++++++++++++++++++++++++++++++++++++++++++++++++++++++++++++++++++++++++++++++++++++++++++++++++++++++++++++++  ",
" ++++++&&&&&&&&&&&&&&&&&&&&&&&&&&&&&&&&&&&&&&&&&&&&&&&&&&&&&&&&&&&&&&&&&&&&&&&&&&&&&&&&&&&&&&&&&&&&&&&&&&&&&&&&&&&&&&&&&&++++++ ",
" ++++&&&&&&&&&&&&&&&&&&&&&&&&&&&&&&&&&&&&&&&&&&&&&&&&&&&&&&&&&&&&&&&&&&&&&&&&&&&&&&&&&&&&&&&&&&&&&&&&&&&&&&&&&&&&&&&&&&&&&+++++ ",
"++++&&&&&&&&&&&&&&&&&&&&&&&&&&&&&&&&&&&&&&&&&&&&&&&&&&&&&&&&&&&&&&&&&&&&&&&&&&&&&&&&&&&&&&&&&&&&&&&&&&&&&&&&&&&&&&&&&&&&&&&+++++",
"++++&&&############################%&&&&&&&&&&&&&&&&&&&&&&&&&&&&&&&&&&&&&&&&&&&&&&&&&&&&&&&&&&&&&&&&&&&&&&&&&&%##########&&&++++",
"+++&&&&#...........................+&&&&&&&&&&&&&&&&&&&&&&&&&&&&&&&&&&&&&&&&&&&&&&&&&&&&&&&&&&&&&&&&&&&&&&&&&&+.........#&&&&+++",
"+++&&&&&@...........................@&&&&&&&&&&&&&&&&&&&&&&&&&&&&&&&&&&&&&&&&&&&&&&&&&&&&&&&&&&&&&&&&&&&&&&&&@.........@&&&&&+++",
"+++&&&&&%+...........................$&&&&&&&&&&&&&&&&&&&&&&&&&&&&&&&&&&&&&&&&&&&&&&&&&&&&&&&&&&&&&&&&&&&&&&$.........+&&&&&&+++",
"++&&&&&&&$............................%&&&&&&&&&&&&&&&&&&&&&&&&&&&&&&&&&&&&&&&&&&&&&&&&&&&&&&&&&&&&&&&&&&&&$.........+%&&&&&&+++",
"++&&&&&&&&#...........................+&&&&&&&&&&&&&&&&&&&&&&&&&&&&&&&&&&&&&&&&&&&&&&&&&&&&&&&&&&&&&&&&&&&%+.........$&&&&&&&+++",
"++&&&&&&&&&@...........................#&&&&&&&&&&&&&&&&&&&&&&&&&&&&&&&&&&&&&&&&&&&&&&&&&&&&&&&&&&&&&&&&&&@.........#&&&&&&&&+++",
"++&&&&&&&&&%+...........................$&&&&&&&&&&&&&&&&&&&&&&&&&&&&&&&&&&&&&&&&&&&&&&&&&&&&&&&&&&&&&&&&#.........@&&&&&&&&&+++",
"++&&&&&&&&&&$...........................+%&&&&&&&&&&&&&&&&&&&&&&&&&&&&&&&&&&&&&&&&&&&&&&&&&&&&&&&&&&&&&&$.........+%&&&&&&&&&+++",
"++&&&&&&&&&&&@...........................@&&&&&&&&&&&&&&&&&&&&&&&&&&&&&&&&&&&&&&&&&&&&&&&&&&&&&&&&&&&&&%..........%&&&&&&&&&&+++",
"++&&&&+&&&&&&&+...........................$&&&&&&&&&&&&&&&&&&&&&&&&&&&&&&&&&&&&&&&&&&&&&&&&&&&&&&&&&&&&+.........$&&&&&&&&&&&+++",
"++&&&&&&&&&&&&%............................%&&&&&&&&&&&&&&&&&&&&&&&&&&&&&&&&&&&&&&&&&&&&&&&&&&&&&&&&&&+.........@&&&&&&&&&&&&+++",
"++&&&&&&&&&&&&&$...........................+%&&&&&&&&&&&&&&&&&&&&&&&&&&&&&&&&&&&&&&&&&&&&&&&&&&&&&&&&#.........@&&&&&&&&&&&&&+++",
"++&&&&&&&&&&&&&&#...........................@&&&&&&&&&&&&&&&&&&&&&&&&&&&&&&&&&&&&&&&&&&&&&&&&&&&&&&&$.........+%&&&&&&&&&&&&&+++",
"++&&&&&&&&&&&&&&&+...........................$&&&&&&&&&&&&&&&&&&&&&&&&&&&&&&&&&&&&&&&&&&&&&&&&&&&&&%..........%&&&&&&&&&&&&&&+++",
"++&&&&&&&&&&&&&&&%............................%&&&&&&&&&&&&&&&&&&&&&&&&&&&&&&&&&&&&&&&&&&&&&&&&&&&%+.........$&&&&&&&&&&&&&&&+++",
"++&&&&+&&&&&&&&&&&$...........................+%&&&&&&&&&&&&&&&&&&&&&&&&&&&&&&&&&&&&&&&&&&&&&&&&&&@.........#&&&&&&&&&&&&&&&&+++",
"++&&&&&&&&&&&&&&&&&#...........................@&&&&&&&&&&&&&&&&&&&&&&&&&&&&&&&&&&&&&&&&&&&&&&&&&$.........@%&&&&&&&&&&&&&&&&+++",
"++&&&&&&&&&&&&&&&&&%@...........................$&&&&&&&&&&&&&&&&&&&&&&&&&&&&&&&&&&&&&&&&&&&&&&&$.........+%&&&&&&&&&&&&&&&&&+++",
"++&&&&&&&&&&&&&&&&&&%...........................+%&&&&&&&&&&&&&&&&&&&&&&&&&&&&&&&&&&&&&&&&&&&&&%+.........$&&&&&&&&&&&&&&&&&&+++",
"++&&&&&&&&&&&&&&&&&&&$...........................@%&&&&&&&&&&&&&&&&&&&&&&&&&&&&&&&&&&&&&&&&&&&&+.........#&&&&&&&&&&&&&&&&&&&+++",
"++&&&&&&&&&&&&&&&&&&&&@...........................#&&&&&&&&&&&&&&&&&&&&&&&&&&&&&&&&&&&&&&&&&&&#.........@&&&&&&&&&&&&&&&&&&&&+++",
"++&&&&+&&&&&&&&&&&&&&&%+...........................$&&&&&&&&&&&&&&&&&&&&&&&&&&&&&&&&&&&&&&&&&$.........+&&&&&&&&&&&&&&&&&&&&&+++",
"++&&&&&&&&&&&&&&&&&&&&&%...........................+%&&&&&&&&&&&&&&&&&&&&&&&&&&&&&&&&&&&&&&&$..........%&&&&&&&&&&&&&&&&&&&&&+++",
"++&&&&&&&&&&&&&&&&&&&&&&#...........................@&&&&&&&&&&&&&&&&&&&&&&&&&&&&&&&&&&&&&&%+.........$&&&&&&&&&&&&&&&&&&&&&&+++",
"++&&&&&&&&&&&&&&&&&&&&&&&@...........................#&&&&&&&&&&&&&&&&&&&&&&&&&&&&&&&&&&&&&+.........$&&&&&&&&&&&&&&&&&&&&&&&+++",
"++&&&&&&&&&&&&&&&&&&&&&&&&+...........................%&&&&&&&&&&&&&&&&&&&&&&&&&&&&&&&&&&&@.........#&&&&&&&&&&&&&&&&&&&&&&&&+++",
"++&&&&&&&&&&&&&&&&&&&&&&&&%............................&&&&&&&&&&&&&&&&&&&&&&&&&&&&&&&&&&#.........+%&&&&&&&&&&&&&&&&&&&&&&&&+++",
"++&&&&+&&&&&&&&&&&&&&&&&&&&$...........................+&&&&&&&&&&&&&&&&&&&&&&&&&&&&&&&&$+........+%&&&&&&&&&&&&&&&&&&&&&&&&&+++",
"++&&&&&&&&&&&&&&&&&&&&&&&&&&@...........................#&&&&&&&&&&&&&&&&&&&&&&&&&&&&&&%+.........$&&&&&&&&&&&&&&&&&&&&&&&&&&+++",
"++&&&&&&&&&&&&&&&&&&&&&&&&&&%+...........................%&&&&&&&&&&&&&&&&&&&&&&&&&&&&&@.........#&&&&&&&&&&&&&&&&&&&&&&&&&&&+++",
"++&&&&&&&&&&&&&&&&&&&&&&&&&&&$...........................+%&&&&&&&&&&&&&&&&&&&&&&&&&&&#.........@&&&&&&&&&&&&&&&&&&&&&&&&&&&&+++",
"++&&&&&&&&&&&&&&&&&&&&&&&&&&&&#...........................#&&&&&&&&&&&&&&&&&&&&&&&&&&$.........+%&&&&&&&&&&&&&&&&&&&&&&&&&&&&+++",
"++&&&&&&&&&&&&&&&&&&&&&&&&&&&&&@...........................$&&&&&&&&&&&&&&&&&&&&&&&&%..........%&&&&&&&&&&&&&&&&&&&&&&&&&&&&&+++",
"++&&&&+&&&&&&&&&&&&&&&&&&&&&&&&%+..........................+%&&&&&&&&&&&&&&&&&&&&&&&+.........$&&&&&&&&&&&&&&&&&&&&&&&&&&&&&&+++",
"++&&&&&&&&&&&&&&&&&&&&&&&&&&&&&&$...........................+&&&&&&&&&&&&&&&&&&&&&&@.........#&&&&&&&&&&&&&&&&&&&&&&&&&&&&&&&+++",
"++&&&&&&&&&&&&&&&&&&&&&&&&&&&&&&&#...........................#&&&&&&&&&&&&&&&&&&&&#.........@&&&&&&&&&&&&&&&&&&&&&&&&&&&&&&&&+++",
"++&&&&&&&&&&&&&&&&&&&&&&&&&&&&&&&&+...........................%&&&&&&&&&&&&&&&&&&$..........%&&&&&&&&&&&&&&&&&&&&&&&&&&&&&&&&+++",
"++&&&&&&&&&&&&&&&&&&&&&&&&&&&&&&&&&............................&&&&&&&&&&&&&&&&&%..........%&&&&&&&&&&&&&&&&&&&&&&&&&&&&&&&&&+++",
"++&&&&&&&&&&&&&&&&&&&&&&&&&&&&&&&&&%...........................+&&&&&&&&&&&&&&&&+.........$&&&&&&&&&&&&&&&&&&&&&&&&&&&&&&&&&&+++",
"++&&&&+&&&&&&&&&&&&&&&&&&&&&&&&&&&&&#...........................#&&&&&&&&&&&&&&@.........#&&&&&&&&&&&&&&&&&&&&&&&&&&&&&&&&&&&+++",
"++&&&&&&&&&&&&&&&&&&&&&&&&&&&&&&&&&&&+...........................%&&&&&&&&&&&&#.........@%&&&&&&&&&&&&&&&&&&&&&&&&&&&&&&&&&&&+++",
"++&&&&&&&&&&&&&&&&&&&&&&&&&&&&&&&&&&&%+...........................&&&&&&&&&&&$+........+%&&&&&&&&&&&&&&&&&&&&&&&&&&&&&&&&&&&&+++",
"++&&&&&&&&&&&&&&&&&&&&&&&&&&&&&&&&&&&&$...........................@&&&&&&&&&%+.........$&&&&&&&&&&&&&&&&&&&&&&&&&&&&&&&&&&&&&+++",
"++&&&&&&&&&&&&&&&&&&&&&&&&&&&&&&&&&&&&&#...........................#&&&&&&&&+.........#&&&&&&&&&&&&&&&&&&&&&&&&&&&&&&&&&&&&&&+++",
"++&&&&&&&&&&&&&&&&&&&&&&&&&&&&&&&&&&&&&&+..........................+$&&&&&&#.........@&&&&&&&&&&&&&&&&&&&&&&&&&&&&&&&&&&&&&&&+++",
"++&&&&+&&&&&&&&&&&&&&&&&&&&&&&&&&&&&&&&&%+..........................+%&&&&$.........+&&&&&&&&&&&&&&&&&&&&&&&&&&&&&&&&&&&&&&&&+++",
"++&&&&&&&&&&&&&&&&&&&&&&&&&&&&&&&&&&&&&&&#...........................#&&&%..........%&&&&&&&&&&&&&&&&&&&&&&&&&&&&&&&&&&&&&&&&+++",
"++&&&&&&&&&&&&&&&&&&&&&&&&&&&&&&&&&&&&&&&&@..........................+%&&..........%&&&&&&&&&&&&&&&&&&&&&&&&&&&&&&&&&&&&&&&&&+++",
"++&&&&&&&&&&&&&&&&&&&&&&&&&&&&&&&&&&&&&&&&&+.........................$&&+.........#&&&&&&&&&&&&&&&&&&&&&&&&&&&&&&&&&&&&&&&&&&+++",
"++&&&&&&&&&&&&&&&&&&&&&&&&&&&&&&&&&&&&&&&&&%........................#&&#.........@&&&&&&&&&&&&&&&&&&&&&&&&&&&&&&&&&&&&&&&&&&&+++",
"++&&&&&&&&&&&&&&&&&&&&&&&&&&&&&&&&&&&&&&&&&&$......................@&&$.........+&&&&&&&&&&&&&&&&&&&&&&&&&&&&&&&&&&&&&&&&&&&&+++",
"++&&&&+&&&&&&&&&&&&&&&&&&&&&&&&&&&&&&&&&&&&&&@....................+&&$+.........%&&&&&&&&&&&&&&&&&&&&&&&&&&&&&&&&&&&&&&&&&&&&+++",
"++&&&&&&&&&&&&&&&&&&&&&&&&&&&&&&&&&&&&&&&&&&&&+...................%&%+.........$&&&&&&&&&&&&&&&&&&&&&&&&&&&&&&&&&&&&&&&&&&&&&+++",
"++&&&&&&&&&&&&&&&&&&&&&&&&&&&&&&&&&&&&&&&&&&&&%..................$&&@.........#&&&&&&&&&&&&&&&&&&&&&&&&&&&&&&&&&&&&&&&&&&&&&&+++",
"++&&&&&&&&&&&&&&&&&&&&&&&&&&&&&&&&&&&&&&&&&&&&&$................$&&#.........@&&&&&&&&&&&&&&&&&&&&&&&&&&&&&&&&&&&&&&&&&&&&&&&+++",
"++&&&&&&&&&&&&&&&&&&&&&&&&&&&&&&&&&&&&&&&&&&&&&&@..............@&&$..........+&&&&&&&&&&&&&&&&&&&&&&&&&&&&&&&&&&&&&&&&&&&&&&&+++",
"++&&&&&&&&&&&&&&&&&&&&&&&&&&&&&&&&&&&&&&&&&&&&&&%+............+&&&............#&&&&&&&&&&&&&&&&&&&&&&&&&&&&&&&&&&&&&&&&&&&&&&+++",
"++&&&&+&&&&&&&&&&&&&&&&&&&&&&&&&&&&&&&&&&&&&&&&&&$............%&&+.............$&&&&&&&&&&&&&&&&&&&&&&&&&&&&&&&&&&&&&&&&&&&&&+++",
"++&&&&&&&&&&&&&&&&&&&&&&&&&&&&&&&&&&&&&&&&&&&&&&&&@..........%&&@..............+%&&&&&&&&&&&&&&&&&&&&&&&&&&&&&&&&&&&&&&&&&&&&+++",
"++&&&&&&&&&&&&&&&&&&&&&&&&&&&&&&&&&&&&&&&&&&&&&&&%+.........#&&$................@&&&&&&&&&&&&&&&&&&&&&&&&&&&&&&&&&&&&&&&&&&&&+++",
"++&&&&&&&&&&&&&&&&&&&&&&&&&&&&&&&&&&&&&&&&&&&&&&%+.........@&&$..................$&&&&&&&&&&&&&&&&&&&&&&&&&&&&&&&&&&&&&&&&&&&+++",
"++&&&&&&&&&&&&&&&&&&&&&&&&&&&&&&&&&&&&&&&&&&&&&&@.........+%&%+...................%&&&&&&&&&&&&&&&&&&&&&&&&&&&&&&&&&&&&&&&&&&+++",
"++&&&&&&&&&&&&&&&&&&&&&&&&&&&&&&&&&&&&&&&&&&&&&#.........+%&%+.....................&&&&&&&&&&&&&&&&&&&&&&&&&&&&&&&&&&&&&&&&&&+++",
"++&&&&+&&&&&&&&&&&&&&&&&&&&&&&&&&&&&&&&&&&&&&&%..........$&&#......................@&&&&&&&&&&&&&&&&&&&&&&&&&&&&&&&&&&&&&&&&&+++",
"++&&&&&&&&&&&&&&&&&&&&&&&&&&&&&&&&&&&&&&&&&&&&..........#&&#........................#&&&&&&&&&&&&&&&&&&&&&&&&&&&&&&&&&&&&&&&&+++",
"++&&&&&&&&&&&&&&&&&&&&&&&&&&&&&&&&&&&&&&&&&&&+.........+&&%..........................%&&&&&&&&&&&&&&&&&&&&&&&&&&&&&&&&&&&&&&&+++",
"++&&&&&&&&&&&&&&&&&&&&&&&&&&&&&&&&&&&&&&&&&&@..........&&%+..........................+&&&&&&&&&&&&&&&&&&&&&&&&&&&&&&&&&&&&&&&+++",
"++&&&&&&&&&&&&&&&&&&&&&&&&&&&&&&&&&&&&&&&&&$..........%&&%............................@&&&&&&&&&&&&&&&&&&&&&&&&&&&&&&&&&&&&&&+++",
"++&&&&&&&&&&&&&&&&&&&&&&&&&&&&&&&&&&&&&&&&%..........$&&&&$............................$&&&&&&&&&&&&&&&&&&&&&&&&&&&&&&&&&&&&&+++",
"++&&&&+&&&&&&&&&&&&&&&&&&&&&&&&&&&&&&&&&&%+.........#&&&&&&@...........................+$&&&&&&&&&&&&&&&&&&&&&&&&&&&&&&&&&&&&+++",
"++&&&&&&&&&&&&&&&&&&&&&&&&&&&&&&&&&&&&&&&@.........@&&&&&&&%+...........................+&&&&&&&&&&&&&&&&&&&&&&&&&&&&&&&&&&&&+++",
"++&&&&&&&&&&&&&&&&&&&&&&&&&&&&&&&&&&&&&&#.........+%&&&&&&&&%............................#&&&&&&&&&&&&&&&&&&&&&&&&&&&&&&&&&&&+++",
"++&&&&&&&&&&&&&&&&&&&&&&&&&&&&&&&&&&&&&$..........%&&&&&&&&&&#............................$&&&&&&&&&&&&&&&&&&&&&&&&&&&&&&&&&&+++",
"++&&&&&&&&&&&&&&&&&&&&&&&&&&&&&&&&&&&&%+.........$&&&&&&&&&&&&@............................&&&&&&&&&&&&&&&&&&&&&&&&&&&&&&&&&&+++",
"++&&&&+&&&&&&&&&&&&&&&&&&&&&&&&&&&&&&%+.........#&&&&&&&&&&&&&&............................+&&&&&&&&&&&&&&&&&&&&&&&&&&&&&&&&&+++",
"++&&&&&&&&&&&&&&&&&&&&&&&&&&&&&&&&&&&@.........+&&&&&&&&&&&&&&&%............................#&&&&&&&&&&&&&&&&&&&&&&&&&&&&&&&&+++",
"++&&&&&&&&&&&&&&&&&&&&&&&&&&&&&&&&&&$.........+%&&&&&&&&&&&&&&&&$............................%&&&&&&&&&&&&&&&&&&&&&&&&&&&&&&&+++",
"++&&&&&&&&&&&&&&&&&&&&&&&&&&&&&&&&&%..........%&&&&&&&&&&&&&&&&&&@............................%&&&&&&&&&&&&&&&&&&&&&&&&&&&&&&+++",
"++&&&&&&&&&&&&&&&&&&&&&&&&&&&&&&&&&..........#&&&&&&&&&&&&&&&&&&&%+...........................+&&&&&&&&&&&&&&&&&&&&&&&&&&&&&&+++",
"++&&&&&&&&&&&&&&&&&&&&&&&&&&&&&&&&+.........@&&&&&&&&&&&&&&&&&&&&&%............................#&&&&&&&&&&&&&&&&&&&&&&&&&&&&&+++",
"++&&&&&&&&&&&&&&&&&&&&&&&&&&&&&&&@.........@&&&&&&&&&&&&&&&&&&&&&&&#............................$&&&&&&&&&&&&&&&&&&&&&&&&&&&&+++",
"++&&&&+&&&&&&&&&&&&&&&&&&&&&&&&&$.........+%&&&&&&&&&&&&&&&&&&&&&&&&@...........................+%&&&&&&&&&&&&&&&&&&&&&&&&&&&+++",
"++&&&&&&&&&&&&&&&&&&&&&&&&&&&&&%..........%&&&&&&&&&&&&&&&&&&&&&&&&&%+...........................@&&&&&&&&&&&&&&&&&&&&&&&&&&&+++",
"++&&&&&&&&&&&&&&&&&&&&&&&&&&&&%+.........$&&&&&&&&&&&&&&&&&&&&&&&&&&&$............................$&&&&&&&&&&&&&&&&&&&&&&&&&&+++",
"++&&&&&&&&&&&&&&&&&&&&&&&&&&&&@.........@&&&&&&&&&&&&&&&&&&&&&&&&&&&&&#............................%&&&&&&&&&&&&&&&&&&&&&&&&&+++",
"++&&&&&&&&&&&&&&&&&&&&&&&&&&&#.........@%&&&&&&&&&&&&&&&&&&&&&&&&&&&&&&+...........................+&&&&&&&&&&&&&&&&&&&&&&&&&+++",
"++&&&&&&&&&&&&&&&&&&&&&&&&&&$.........+%&&&&&&&&&&&&&&&&&&&&&&&&&&&&&&&&............................#&&&&&&&&&&&&&&&&&&&&&&&&+++",
"++&&&&+&&&&&&&&&&&&&&&&&&&&%+.........$&&&&&&&&&&&&&&&&&&&&&&&&&&&&&&&&&$............................$&&&&&&&&&&&&&&&&&&&&&&&+++",
"++&&&&&&&&&&&&&&&&&&&&&&&&&+.........#&&&&&&&&&&&&&&&&&&&&&&&&&&&&&&&&&&&#............................%&&&&&&&&&&&&&&&&&&&&&&+++",
"++&&&&&&&&&&&&&&&&&&&&&&&&#.........@&&&&&&&&&&&&&&&&&&&&&&&&&&&&&&&&&&&&&@...........................+&&&&&&&&&&&&&&&&&&&&&&+++",
"++&&&&&&&&&&&&&&&&&&&&&&&$.........+&&&&&&&&&&&&&&&&&&&&&&&&&&&&&&&&&&&&&&%+...........................@&&&&&&&&&&&&&&&&&&&&&+++",
"++&&&&&&&&&&&&&&&&&&&&&&$..........%&&&&&&&&&&&&&&&&&&&&&&&&&&&&&&&&&&&&&&&$............................$&&&&&&&&&&&&&&&&&&&&+++",
"++&&&&+&&&&&&&&&&&&&&&&%+.........%&&&&&&&&&&&&&&&&&&&&&&&&&&&&&&&&&&&&&&&&&#...........................+%&&&&&&&&&&&&&&&&&&&+++",
"++&&&&&&&&&&&&&&&&&&&&&+.........$&&&&&&&&&&&&&&&&&&&&&&&&&&&&&&&&&&&&&&&&&&&@...........................+&&&&&&&&&&&&&&&&&&&+++",
"++&&&&&&&&&&&&&&&&&&&&@.........@&&&&&&&&&&&&&&&&&&&&&&&&&&&&&&&&&&&&&&&&&&&&%+...........................#&&&&&&&&&&&&&&&&&&+++",
"++&&&&&&&&&&&&&&&&&&&$.........+&&&&&&&&&&&&&&&&&&&&&&&&&&&&&&&&&&&&&&&&&&&&&&$............................$&&&&&&&&&&&&&&&&&+++",
"++&&&&&&&&&&&&&&&&&&$+........+%&&&&&&&&&&&&&&&&&&&&&&&&&&&&&&&&&&&&&&&&&&&&&&&#...........................+%&&&&&&&&&&&&&&&&+++",
"++&&&&&&&&&&&&&&&&&%@.........$&&&&&&&&&&&&&&&&&&&&&&&&&&&&&&&&&&&&&&&&&&&&&&&&&+...........................@&&&&&&&&&&&&&&&&+++",
"++&&&&&&&&&&&&&&&&&@.........#&&&&&&&&&&&&&&&&&&&&&&&&&&&&&&&&&&&&&&&&&&&&&&&&&&%+...........................$&&&&&&&&&&&&&&&+++",
"++&&&&+&&&&&&&&&&&$.........@&&&&&&&&&&&&&&&&&&&&&&&&&&&&&&&&&&&&&&&&&&&&&&&&&&&&$............................%&&&&&&&&&&&&&&+++",
"++&&&&&&&&&&&&&&&$.........+%&&&&&&&&&&&&&&&&&&&&&&&&&&&&&&&&&&&&&&&&&&&&&&&&&&&&&#...........................+&&&&&&&&&&&&&&+++",
"++&&&&&&&&&&&&&&%+.........%&&&&&&&&&&&&&&&&&&&&&&&&&&&&&&&&&&&&&&&&&&&&&&&&&&&&&&&+...........................@&&&&&&&&&&&&&+++",
"++&&&&&&&&&&&&&&+.........$&&&&&&&&&&&&&&&&&&&&&&&&&&&&&&&&&&&&&&&&&&&&&&&&&&&&&&&&&............................#&&&&&&&&&&&&+++",
"++&&&&&&&&&&&&&@.........#&&&&&&&&&&&&&&&&&&&&&&&&&&&&&&&&&&&&&&&&&&&&&&&&&&&&&&&&&&%............................%&&&&&&&&&&&+++",
"++&&&&&&&&&&&&#.........@&&&&&&&&&&&&&&&&&&&&&&&&&&&&&&&&&&&&&&&&&&&&&&&&&&&&&&&&&&&&#...........................+&&&&&&&&&&&+++",
"++&&&&+&&&&&&%.........+&&&&&&&&&&&&&&&&&&&&&&&&&&&&&&&&&&&&&&&&&&&&&&&&&&&&&&&&&&&&&&+...........................@&&&&&&&&&&+++",
"++&&&&&&&&&&%+.........%&&&&&&&&&&&&&&&&&&&&&&&&&&&&&&&&&&&&&&&&&&&&&&&&&&&&&&&&&&&&&&%+...........................$&&&&&&&&&+++",
"++&&&&&&&&&&@.........$&&&&&&&&&&&&&&&&&&&&&&&&&&&&&&&&&&&&&&&&&&&&&&&&&&&&&&&&&&&&&&&&$............................%&&&&&&&&+++",
"++&&&&&&&&&#.........#&&&&&&&&&&&&&&&&&&&&&&&&&&&&&&&&&&&&&&&&&&&&&&&&&&&&&&&&&&&&&&&&&&#...........................+&&&&&&&&+++",
"++&&&&&&&&$.........@&&&&&&&&&&&&&&&&&&&&&&&&&&&&&&&&&&&&&&&&&&&&&&&&&&&&&&&&&&&&&&&&&&&%+...........................#&&&&&&&+++",
"++&&&&&&&%+........+%&&&&&&&&&&&&&&&&&&&&&&&&&&&&&&&&&&&&&&&&&&&&&&&&&&&&&&&&&&&&&&&&&&&&%............................$&&&&&&+++",
"++&&&&&&&+.........%&&&&&&&&&&&&&&&&&&&&&&&&&&&&&&&&&&&&&&&&&&&&&&&&&&&&&&&&&&&&&&&&&&&&&&$...........................+%&&&&&+++",
"+++&&&&&@.........$&&&&&&&&&&&&&&&&&&&&&&&&&&&&&&&&&&&&&&&&&&&&&&&&&&&&&&&&&&&&&&&&&&&&&&&&@...........................@&&&&&+++",
"+++&&&&#.........@&&&&&&&&&&&&&&&&&&&&&&&&&&&&&&&&&&&&&&&&&&&&&&&&&&&&&&&&&&&&&&&&&&&&&&&&&&+...........................#&&&&+++",
"+++&&&&##########&&&&&&&&&&&&&&&&&&&&&&&&&&&&&&&&&&&&&&&&&&&&&&&&&&&&&&&&&&&&&&&&&&&&&&&&&&&%############################&&&++++",
"++++&&&&&&&&&&&&&&&&&&&&&&&&&&&&&&&&&&&&&&&&&&&&&&&&&&&&&&&&&&&&&&&&&&&&&&&&&&&&&&&&&&&&&&&&&&&&&&&&&&&&&&&&&&&&&&&&&&&&&&&&++++",
"+++++&&&&&&&&&&&&&&&&&&&&&&&&&&&&&&&&&&&&&&&&&&&&&&&&&&&&&&&&&&&&&&&&&&&&&&&&&&&&&&&&&&&&&&&&&&&&&&&&&&&&&&&&&&&&&&&&&&&&&&++++ ",
" +++++&&&&&&&&&&&&&&&&&&&&&&&&&&&&&&&&&&&&&&&&&&&&&&&&&&&&&&&&&&&&&&&&&&&&&&&&&&&&&&&&&&&&&&&&&&&&&&&&&&&&&&&&&&&&&&&&&&&++++++ ",
"  +++++++&&&&&&&&&&&&&&&&&&&&&&&&&&&&&&&&&&&&&&&&&&&&&&&&&&&&&&&&&&&&&&&&&&&&&&&&&&&&&&&&&&&&&&&&&&&&&&&&&&&&&&&&&&&&&++++++++  ",
"   ++++++++++++++++++++++++++++++++++++++++++++++++++++++++++++++++++++++++++++++++++++++++++++++++++++++++++++++++++++++++++   ",
"    +++++++++++++++++++++++++++++++++++++++++++++++++++++++++++++++++++++++++++++++++++++++++++++++++++++++++++++++++++++++     "};
