/* XPM */
static char  *x2goagentIconData[]={
"128 128 17 1",
". c None",
"m c #323232",
"l c #323232",
"f c #323232",
"e c #323232",
"o c #323232",
"# c #323232",
"h c #323232",
"i c #323232",
"n c #323232",
"d c #323232",
"a c #323232",
"g c #323232",
"j c #323232",
"b c #323232",
"k c #323232",
"c c #323232",
".....#abccccccccccccccccccccccccccccccccccccccccccccccccccccccccccccccccccccccccccccccccccccccccccccccccccccccccccccccccbde.....",
"...fbccccccccccccccccccccccccccccccccccccccccccccccccccccccccccccccccccccccccccccccccccccccccccccccccccccccccccccccccccccccgf...",
"..#ccccaheeeeeeeeeeeeeeeeeeeeeeeeeeeeeeeeeeeeeeeeeeeeeeeeeeeeeeeeeeeeeeeeeeeeeeeeeeeeeeeeeeeeeeeeeeeeeeeeeeeeeeeeeeeeeeijccckf..",
".ecccgl..................................................................................................................ejcckf.",
".bccd.....................................................................................................................mdccg.",
"#cca.......................................................................................................................mjcce",
"gckm........................................................................................................................eccd",
"ccn..........................................................................................................................jcb",
"cce..........................................................................................................................icc",
"ccm..........................................................................................................................ecc",
"cc...........................................................................................................................ecc",
"cc...........................................................................................................................ecc",
"cc...........................................................................................................................ecc",
"cc...........................................................................................................................ecc",
"cc............................................meeee..........................................................................ecc",
"cc.........eeeeeeeeoiiiiiiiinggggggggjccccccccccccc....#ggggggggggggggggggggggggggggf.............ggggggggggggggggggggggf....ecc",
"cc....meeeeoiiiiiiiinggggggggjccccccccccccccccccccc....icccccccccccccccccccccccccccce.............cccccccccccccccccccccce....ecc",
"cc....................................meeeeeeeeoiii....icccccccccccccccccccccccccccce.............cccccccccccccccccccccce....ecc",
"cc.......................................................menbccccccccccccccccccbhe..................logccccccccccccghe.......ecc",
"cc...........................................................iccccccccccccccccdm.......................#cccccccccke..........ecc",
"cc..............................................lee...........#cccccccccccccckm.........................jccccccckm...........ecc",
"cc........feeeeeeeeoiiiiiiiiiaggggggggjcccccccccccc............icccccccccccccd..........................icccccccf............ecc",
"cc....meeeeeoiiiiiiiinggggggggjcccccccccccccccccccciiiiii#m.....jcccccccccccci..........................icccccci.............ecc",
"cc......................................eeeeeeeeeiiiiiiiiigl....eccccccccccccd..........................dcccccj..............ecc",
"cc...............................................................dcccccccccccj..........................bccccce..............ecc",
"cc...............................................................lccccccccccccl........................lccccca...............ecc",
"cc.............................................meeeeeeee#iiiie....dccccccccccch........................icccccl...............ecc",
"cc.........meeeeeeeeoiiiiiiiinggggggggjccccccccccccccccccccccb....ecccccccccccb........................bccccn................ecc",
"cc....meeeeiiiiiiiiiaggggggggbcccccccccccccccccccccccccccccccc#....gccccccccccco......................#cccckm................ecc",
"cc....................................meeeeeeeeeiiiiiiiiiaggggd....#cccccccccccg......................bcccci.................ecc",
"cc..................................................................bcccccccccccf....................#cccckm.................ecc",
"cc..................................................................hcccccccccccd...................mkcccci..................ecc",
"cc............................................meeeeeeeeoiiiiiiiil...mkcccccccccccl..................icccckm..................ecc",
"cc.........eeeeeeeeoiiiiiiiinggggggggjccccccccccccccccccccccccccn....dccccccccccci.................mkcccci...................ecc",
"cc....meeeeeiiiiiiiiiaggggggggbccccccccccccccccccccccccccccccccckm...lccccccccccck.................icccckm...................ecc",
"cc.....................................leeeeeeeeoiiiiiiiiigggggggo....accccccccccc#...............mkcccch....................ecc",
"cc....................................................................ecccccccccccb...............iccccb.....................ecc",
"cc.....................................................................jccccccccccce.............mkcccc#.....................ecc",
"cc.............................................meeeeeeeeehiiiiiiii#....#ccccccccccca.............nccccb......................ecc",
"cc........feeeeeeee#iiiiiiiiigggggggggkccccccccccccccccccccccccccccl....kcccccccccccl...........lccccc#......................ecc",
"cc....meeeeeoiiiiiiiiigggggggggkcccccccccccccccccccccccccccccccccccd....icccccccccccd...........dccccb.......................ecc",
"cc......................................leeeeeeeeoiiiiiiiingggggggga....mccccccccccckm.........lccccc#.......................ecc",
"cc.......................................................................dccccccccccch.........dccccb........................ecc",
"cc.......................................................................lcccccccccccb........lccccc#........................ecc",
"cc.............................................meeeeeeeeoiiiiiiiingggo....gccccccccccc#.......dccccg.........................ecc",
"cc.........meeeeeeeeoiiiiiiiinggggggggjccccccccccccccccccccccccccccccg....occcccccccccg......lccccce.........................ecc",
"cc....meeeeiiiiiiiiiaggggggggbcccccccccccccccccccccccccccccccccccccccce....bccccccccccce.....gccccg..........................ecc",
"cc....................................meeeeeeeeeiiiiiiiiigggggggggkcccd....#cccccccccccd....eccccce..........................ecc",
"cc.........................................................................mkcccccccccccl...gccccg...........................ecc",
"cc..........................................................................nccccccccccci..eccccce...........................ecc",
"cc............................................meeeeeeeeoiiiiiiiingggggggm...lccccccccccckm.gccccg............................ecc",
"cc.........eeeeeeeeoiiiiiiiinggggggggjcccccccccccccccccccccccccccccccccc#....dccccccccccc#eccccce............................ecc",
"cc....meeeeeiiiiiiiiiaggggggggkcccccccccccccccccccccccccccccccccccccccccb....ecccccccccccbgccccg.............................ecc",
"cc.....................................leeeeeeeeoiiiiiiiiigggggggggkccccco....gccccccccccccccccl.............................ecc",
"cc............................................................................#cccccccccccccccd..............................ecc",
"cc.............................................................................bccccccccccccccl..............................ecc",
"cc.............................................leeeeeeeeeiiiiiiiiiagggggggi....icccccccccccccd...............................ecc",
"cc........feeeeeeee#iiiiiiiingggggggggkccccccccccccccccccccccccccccccccccckm...mkccccccccccccl...............................ecc",
"cc....meeeeeoiiiiiiiiigggggggggkccccccccccccccccccccccccccccccccccccccccccci....dccccccccccca................................ecc",
"cc......................................leeeeeeeeoiiiiiiiiigggggggggccccccck....lccccccccccckm...............................ecc",
"cc...............................................................................accccccccccc#...............................ecc",
"cc...............................................................................ecccccccccccb...............................ecc",
"cc............................................leeeeeeeeeiiiiiiiiiaggggggggbcce....bccccccccccce..............................ecc",
"cc.......feeeeeeee#iiiiiiiiigggggggggkcccccccccccccccccccccccccccccccccccccccd....#cccccccccccg..............................ecc",
"cc....meeeeeeoiiiiiiiingggggggggccccccccccccccccccccccccccccccccccccccccccccccl....kcccccccccccl.............................ecc",
"cc.......................................feeeeeeeehiiiiiiiidggggggggbccccccccci....ncccccccccccd.............................ecc",
"cc...........................................................................mm....bccccccccccccm............................ecc",
"cc................................................................................#ccccccccccccci............................ecc",
"cc..........................................leeeeeeee#iiiiiiiidggggggggbcccccl....bccccccccccccck............................ecc",
"cc......feeeeeeeehiiiiiiiiaggggggggkccccccccccccccccccccccccccccccccccccccccd....#ccccccccccccccc#...........................ecc",
"cc....meeeeeee#iiiiiiiidggggggggjcccccccccccccccccccccccccccccccccccccccccccl....bcccccccccccccccb...........................ecc",
"cc.......................................meeeeeeeeeiiiiiiiiigggggggggkcccccd....#cccccbccccccccccce..........................ecc",
"cc..............................................................................bccccdhcccccccccccg..........................ecc",
"cc.............................................................................#ccccclmkcccccccccccl.........................ecc",
"cc..........................................meeeeeeeeeiiiiiiiiiaggggggggbkm....bccccd..ncccccccccccd.........................ecc",
"cc.....leeeeeeeeoiiiiiiiiigggggggggkccccccccccccccccccccccccccccccccccccci....hcccckl..lccccccccccccm........................ecc",
"cc....meeeeeeeehiiiiiiiidggggggggbcccccccccccccccccccccccccccccccccccccckm...mkcccci....dccccccccccci........................ecc",
"cc........................................leeeeeeee#iiiiiiiinggggggggjcci....icccckm....eccccccccccck........................ecc",
"cc..........................................................................mkcccci......gccccccccccc#.......................ecc",
"cc..........................................................................icccckm......#cccccccccccb.......................ecc",
"cc.........................................leeeeeeeeoiiiiiiiiigggggggga....mkcccci........bccccccccccce......................ecc",
"cc....meeeeeeeeoiiiiiiiiigggggggggkccccccccccccccccccccccccccccccccccci....icccckm........hcccccccccccg......................ecc",
"cc.....feeeeeeeehiiiiiiiiaggggggggkcccccccccccccccccccccccccccccccccckm...mkcccci.........mkcccccccccccl.....................ecc",
"cc.........................................feeeeeeeehiiiiiiiiagggggggh....icccckm..........icccccccccccd.....................ecc",
"cc.......................................................................mkcccci...........lccccccccccccm....................ecc",
"cc.......................................................................icccckm............dccccccccccci....................ecc",
"cc...........................................eeeeeeeeehiiiiiiiidggga....mkcccci.............fccccccccccck....................ecc",
"cc......feeeeeeee#iiiiiiiingggggggggccccccccccccccccccccccccccccccci....iccccb...............gccccccccccc#...................ecc",
"cc....meeeeeeeoiiiiiiiiigggggggggbcccccccccccccccccccccccccccccccckm...mkcccc#...............occcccccccccb...................ecc",
"cc........................................meeeeeeeeeiiiiiiiiidgggg#....iccccb.................bccccccccccce..................ecc",
"cc....................................................................mkcccc#.................#cccccccccccg..................ecc",
"cc....................................................................iccccb..................mkcccccccccccl.................ecc",
"cc..........................................eeeeeeeeeiiiiiiiiiaga....mkcccc#...................icccccccccccd.................ecc",
"cc.....leeeeeeee#iiiiiiiinggggggggjccccccccccccccccccccccccccccci....iccccb....................lccccccccccccm................ecc",
"cc....meeeeeeee#iiiiiiiiigggggggggkcccccccccccccccccccccccccccckm...mkcccc#.....................dccccccccccci................ecc",
"cc.........................................leeeeeeeeoiiiiiiiiiah....iccccb......................lccccccccccck................ecc",
"cc.................................................................mkcccc#.......................gccccccccccc#...............ecc",
"cc.................................................................dccccj........................ecccccccccccj...............ecc",
"cc..........................................leeeeeeeeeiiiiiiih....lccccce.........................bccccccccccce..............ecc",
"cc....meeeeeeeeeiiiiiiiiidgggggggggcccccccccccccccccccccccccci....dccccg..........................#ccccccccccca..............ecc",
"cc.....feeeeeeeeiiiiiiiinggggggggbcccccccccccccccccccccccccckm...lccccce...........................kcccccccccccl.............ecc",
"cc........................................leeeeeeeehiiiiiiiih....dccccg............................ncccccccccccd.............ecc",
"cc..............................................................lccccce............................fccccccccccccf............ecc",
"cc..............................................................dccccb..............................jcccccccccccg............ecc",
"cc.........................................meeeeeeeeoiiiiil....lcccccn..............................icccccccccccce...........ecc",
"cc......feeeeeeeehiiiiiiiigggggggggccccccccccccccccjgggggo.....gccccc#..............................eccccccccccccbm..........ecc",
"cc....meeeeeeeoiiiiiiiiidgggggggggccccccccccccccccc...........hcccccco...............................cccccccccccccn..........ecc",
"cc.........................................leeeeeee..........ecccccccn..............................lcccccccccccccc#.........ecc",
"cc..........................................................#kccccccckf.............................nccccccccccccccc#........ecc",
"cc........................................................ldcccccccccck#m.........................lncccccccccccccccccdl......ecc",
"cc.........................................feeeeeee....ogjcccccccccccccccggi..................oggbcccccccccccccccccccccja....ecc",
"cc.....leeeeeeee#iiiiiiiidggggggggbcccccccccccccccc....icccccccccccccccccccg..................icccccccccccccccccccccccccc....ecc",
"cc....meeeeeeeehiiiiiiiiaggggggggkccccccccccccccccc....icccccccccccccccccccg..................icccccccccccccccccccccccccc....ecc",
"cc........................................feeeeeeee..........................................................................ecc",
"cc...........................................................................................................................ecc",
"cc...........................................................................................................................ecc",
"cc...........................................................................................................................ecc",
"cc...........................................................................................................................ecc",
"cc...........................................................................................................................ecc",
"cce..........................................................................................................................hcc",
"ccn..........................................................................................................................acb",
"jcb.........................................................................................................................lcca",
"hcci........................................................................................................................acc#",
"mkcc#......................................................................................................................dccb.",
".occci...................................................................................................................macccf.",
"..#cccbne.............................................................................................................menkccc#..",
"...okccccccccccccccccccccccccccccccccccccccccccccccccccccccccccccccccccccccccccccccccccccccccccccccccccccccccccccccccccccccbe...",
"....mhjccccccccccccccccccccccccccccccccccccccccccccccccccccccccccccccccccccccccccccccccccccccccccccccccccccccccccccccccccg#....."};
